<?xml version="1.0" encoding="iso-8859-1"?>
<!-- Generator: Adobe Illustrator 18.0.0, SVG Export Plug-In . SVG Version: 6.00 Build 0)  -->
<!DOCTYPE svg PUBLIC "-//W3C//DTD SVG 1.1//EN" "http://www.w3.org/Graphics/SVG/1.1/DTD/svg11.dtd">
<svg version="1.1" id="Capa_1" xmlns="http://www.w3.org/2000/svg" xmlns:xlink="http://www.w3.org/1999/xlink" x="0px" y="0px"
	 viewBox="0 0 317.374 317.374" style="enable-background:new 0 0 317.374 317.374;" xml:space="preserve">
<g>
	<path d="M293.75,173.315c-2.64-7.487-8.065-13.439-15.277-16.759c-7.213-3.32-15.262-3.572-22.666-0.708l-68.622,26.537
		c-0.119,0.046-0.235,0.095-0.351,0.146c-4.238,1.652-8.724,2.525-13.337,2.597c-0.198,0.003-0.395,0.004-0.593,0.004
		c-3.039,0-6.007-0.366-8.861-1.054c-0.168-0.049-0.337-0.097-0.507-0.133c-15.279-3.912-27.154-17.137-28.672-33.459
		c-1.467-15.775,7.851-60.19,15.338-67.426l11.406-9.971c0.27,0.102,0.546,0.194,0.834,0.263l39.258,9.495
		c1.707,0.419,3.432,0.626,5.146,0.626c3.863,0,7.668-1.054,11.057-3.107c4.555-2.759,7.832-7.025,9.367-12.082l7.624,1.89
		c13.789,3.389,27.766-5.079,31.151-18.869c3.387-13.791-5.078-27.765-18.793-31.132L171.519,0.683
		c-0.064-0.017-0.13-0.032-0.194-0.047c-8.046-1.825-16.541,0.333-22.698,5.748L41.528,99.513c-1.351,1.173-2.199,2.819-2.374,4.599
		L21.997,279.129c-0.033,0.336-0.041,0.675-0.025,1.012l1.439,30.563c0.087,1.854,0.908,3.599,2.281,4.848
		c1.291,1.175,2.972,1.823,4.711,1.823c0.109,0,0.22-0.002,0.329-0.008l119.487-5.628c3.862-0.182,6.845-3.46,6.663-7.321
		l-1.158-24.591l125.037-71.577C292.961,201.265,298.424,186.573,293.75,173.315z M210.649,68.393
		c-1.695,1.026-3.689,1.33-5.635,0.854l-30.555-7.39l5.935-5.189l33.248,8.24C213.042,66.351,212.011,67.567,210.649,68.393z
		 M37.066,303.052l-0.781-16.578l105.502-4.969l0.781,16.578L37.066,303.052z M273.806,196.099l-124.056,71.016l-113.03,5.324
		L52.816,108.25l105.026-91.327c2.803-2.466,6.646-3.453,10.295-2.653l75.7,19.481c6.293,1.546,10.156,7.923,8.611,14.217
		s-7.921,10.157-14.203,8.615l-58.027-14.382c-2.218-0.551-4.568,0.018-6.291,1.524l-32.34,28.27
		c-0.12,0.092-0.242,0.18-0.358,0.281c-0.126,0.11-0.25,0.243-0.375,0.359l-31.776,27.778c-2.91,2.544-3.207,6.966-0.663,9.877
		c2.546,2.911,6.965,3.208,9.878,0.663l9.004-7.871c-0.604,2.386-1.193,4.889-1.767,7.524c-3.535,16.243-5.387,32.791-4.606,41.175
		c2.063,22.184,18.121,40.178,38.832,45.635l37.005,16.556c0.928,0.416,1.899,0.612,2.854,0.612c2.676,0,5.23-1.543,6.394-4.143
		c1.579-3.529-0.002-7.67-3.531-9.249l-11.662-5.217c0.498-0.181,0.996-0.358,1.489-0.555c0.08-0.032,0.159-0.065,0.238-0.1
		l68.312-26.417c3.841-1.487,8.02-1.356,11.764,0.367c3.742,1.723,6.558,4.812,7.928,8.697
		C282.972,184.85,280.137,192.475,273.806,196.099z"/>
</g>
<g>
</g>
<g>
</g>
<g>
</g>
<g>
</g>
<g>
</g>
<g>
</g>
<g>
</g>
<g>
</g>
<g>
</g>
<g>
</g>
<g>
</g>
<g>
</g>
<g>
</g>
<g>
</g>
<g>
</g>
</svg>
